<?xml version="1.0"?>
<svg id="Ebene_1" data-name="Ebene 1" xmlns="http://www.w3.org/2000/svg" xmlns:xlink="http://www.w3.org/1999/xlink" viewBox="0 0 906 293">
  <defs>
    
    <clipPath id="clippath">
      <rect class="cls-1" x="161" y="238" width="287.26" height="47"></rect>
    </clipPath>
  </defs>
  <g class="cls-4">
    <g>
      <path fill="#111A5F" class="cls-3" d="M444.96,267.02c-2.11-1.59-4.23-2.38-7.47-3.37-3.7-1.06-6.68-1.46-6.68-3.37,0-1.32,1.39-1.98,4.17-1.98,3.5,0,6.74.79,9.59,2.38v-8.6c-2.71-1.52-6.01-2.31-9.86-2.31-3.63,0-6.68.92-9.26,2.78-2.58,1.79-3.83,4.37-3.83,7.6,0,4.17,1.92,7.15,5.82,9.06,1.26.6,2.91,1.26,4.95,1.86,2.04.6,3.63,1.12,4.76,1.59s1.66.99,1.66,1.66c0,1.52-1.66,2.24-4.89,2.24-4.96,0-9.32-1.32-12.96-3.97v9.19c4.1,2.11,8.33,3.18,12.69,3.18,9.79,0,14.61-4.3,14.61-10.85,0-3.18-1.12-5.49-3.3-7.08h-.01Z"></path>
      <path fill="#111A5F" class="cls-3" d="M406.98,269.8c0,4.23-2.44,6.14-6.08,6.14s-6.08-1.92-6.08-6.14v-19.05h-9.98v19.9c0,4.63,1.52,8.2,4.57,10.64,3.11,2.44,6.94,3.7,11.5,3.7s8.4-1.26,11.43-3.7c3.11-2.44,4.62-6.01,4.62-10.64v-19.9h-9.98v19.05h-.01Z"></path>
      <path fill="#111A5F" class="cls-3" d="M364.21,250.17c-5.02,0-8.92,2.04-9.91,4.95v-17.12h-9.86v46.08h9.86v-4.37c.99,2.91,4.89,4.95,9.91,4.95,4.69,0,8.65-1.66,11.77-4.95,3.18-3.37,4.75-7.47,4.75-12.3s-1.59-8.92-4.75-12.23c-3.11-3.37-7.08-5.02-11.77-5.02h0ZM368.45,273.37c-1.66,1.59-3.63,2.38-6.01,2.38s-4.5-.79-6.21-2.38c-1.66-1.66-2.51-3.63-2.51-5.94s.86-4.3,2.51-5.89c1.72-1.66,3.77-2.44,6.21-2.44s4.37.79,6.01,2.44c1.66,1.59,2.44,3.57,2.44,5.89s-.79,4.3-2.44,5.94Z"></path>
      <path fill="#111A5F" class="cls-3" d="M326.96,250.03c-5.56,0-9.26,1.79-11.11,5.29-1.52-3.5-4.57-5.29-9.06-5.29-4.03,0-7.4,1.98-8.65,4.89v-4.17h-9.86v33.32h9.86v-18.71c0-3.9,2.31-6.61,5.49-6.61s4.95,2.38,4.95,6.28v19.05h9.86v-18.71c0-3.9,2.31-6.61,5.56-6.61s4.96,2.38,4.96,6.28v19.05h9.86v-20.23c0-8.65-4.23-13.82-11.83-13.82h-.01Z"></path>
      <path fill="#111A5F" class="cls-3" d="M272.67,269.8c0,4.23-2.44,6.14-6.08,6.14s-6.08-1.92-6.08-6.14v-19.05h-9.98v19.9c0,4.63,1.52,8.2,4.57,10.64,3.11,2.44,6.95,3.7,11.5,3.7s8.4-1.26,11.43-3.7c3.11-2.44,4.62-6.01,4.62-10.64v-19.9h-9.98v19.05h-.01Z"></path>
      <path fill="#111A5F" class="cls-3" d="M244.92,238h-9.86v46.08h9.86v-46.08Z"></path>
      <path fill="#111A5F" class="cls-3" d="M166.22,254.72c-3.5,3.37-5.22,7.53-5.22,12.62s1.72,9.26,5.22,12.62c3.5,3.31,7.93,4.96,13.29,4.96,4.3,0,7.73-.99,10.38-3.05v-9.46c-2.58,2.38-5.76,3.57-9.59,3.57-5.49,0-9.46-3.63-9.46-8.65,0-2.58.85-4.62,2.64-6.28,1.79-1.66,4.1-2.44,6.81-2.44,3.77,0,7.01,1.19,9.59,3.63v-9.52c-2.71-2.04-6.21-3.05-10.38-3.05-5.36,0-9.79,1.66-13.29,5.02v.03Z"></path>
      <path fill="#111A5F" class="cls-3" d="M225.12,254.92c-2.99-2.83-6.48-4.5-10.47-4.99v9.14c1.32.4,2.5,1.14,3.53,2.2,1.66,1.66,2.51,3.7,2.51,6.14s-.85,4.5-2.51,6.21c-1.03,1.03-2.2,1.74-3.53,2.14v9.14c3.98-.49,7.47-2.15,10.47-4.93,3.63-3.43,5.42-7.6,5.42-12.55s-1.79-9.12-5.42-12.5h0Z"></path>
      <path fill="#111A5F" class="cls-3" d="M193.52,267.42c0,4.95,1.79,9.12,5.36,12.55,3.01,2.78,6.51,4.43,10.52,4.93v-9.14c-1.32-.4-2.5-1.12-3.53-2.14-1.66-1.66-2.51-3.77-2.51-6.21s.85-4.5,2.51-6.14c1.03-1.07,2.19-1.8,3.53-2.2v-9.14c-4.03.49-7.53,2.16-10.52,4.99-3.57,3.37-5.36,7.53-5.36,12.5h0Z"></path>
    </g>
  </g>
  <path fill="#111A5F" class="cls-2" d="M101.69,284.59c-4.49,0-7.52-2.35-7.52-6.17s3.32-6.55,9.95-7.31l4.96-.59v-.84c0-2.31-1.6-3.78-4.37-3.78-2.52,0-4.24,1.3-4.2,3.57h-5.38c0-4.66,3.78-7.6,9.62-7.6s9.79,3.11,9.79,7.98v14.15h-5.46v-2.81h-.42c-1.39,2.23-3.86,3.4-6.97,3.4ZM103.29,280.81c3.4,0,5.8-2.18,5.8-5.12v-1.6l-4.83.59c-3.4.42-4.75,1.76-4.75,3.36,0,1.72,1.43,2.77,3.78,2.77Z"></path>
  <path fill="#111A5F" class="cls-2" d="M896.87,283h-5.46v-21.42h5.33v2.9h.46c.92-1.97,3.15-3.32,5.42-3.32.88,0,1.81.21,2.44.55v4.91c-1.18-.5-2.56-.76-3.4-.76-2.86,0-4.79,2.44-4.79,6.01v11.13Z"></path>
  <path fill="#111A5F" class="cls-2" d="M875.78,283.71c-6.89,0-11.76-4.75-11.76-11.63s4.83-11.21,11.63-11.21,11.47,4.58,11.47,11.3c0,.5,0,1.3-.04,1.76h-17.43c.55,3.36,2.94,5.59,6.34,5.59,2.6,0,4.7-1.3,5.75-3.28l4.62,1.43c-1.47,3.78-5.54,6.05-10.58,6.05ZM869.65,270.23h11.89c-.46-2.98-2.81-5.17-6.01-5.17s-5.33,2.06-5.88,5.17Z"></path>
  <path fill="#111A5F" class="cls-2" d="M857.32,283.71c-4.12,0-6.72-2.9-6.72-7.22v-10.88h-3.15v-4.03h3.28l1.09-6.85h4.24v6.85h5.04v4.03h-5.04v10.67c0,1.85,1.13,3.11,2.98,3.11.59,0,1.55-.08,2.31-.29l-.04,3.99c-1.13.42-2.81.63-3.99.63Z"></path>
  <path fill="#111A5F" class="cls-2" d="M828.86,283h-5.46v-21.42h5.46v2.94h.42c1.55-2.39,3.7-3.61,6.3-3.61,5.04,0,8.36,3.82,8.36,9.03v13.06h-5.46v-12.43c0-2.9-1.68-4.96-4.49-4.96s-5.12,2.23-5.12,5.21v12.18Z"></path>
  <path fill="#111A5F" class="cls-2" d="M807.78,283.71c-6.89,0-11.76-4.75-11.76-11.63s4.83-11.21,11.63-11.21,11.47,4.58,11.47,11.3c0,.5,0,1.3-.04,1.76h-17.43c.55,3.36,2.94,5.59,6.34,5.59,2.6,0,4.7-1.3,5.75-3.28l4.62,1.43c-1.47,3.78-5.54,6.05-10.58,6.05ZM801.65,270.23h11.89c-.46-2.98-2.81-5.17-6.01-5.17s-5.33,2.06-5.88,5.17Z"></path>
  <path fill="#111A5F" class="cls-2" d="M781.77,283.71c-6.72,0-11.51-4.66-11.51-11.42s4.75-11.42,11.51-11.42c5.63,0,10.08,3.28,10.79,8.19l-5.12.67c-.63-2.56-2.98-4.28-5.63-4.28-3.44,0-6.09,2.81-6.09,6.85s2.6,6.85,6.05,6.85c2.73,0,5.04-1.72,5.71-4.24l5.17.63c-.88,4.91-5.33,8.19-10.88,8.19Z"></path>
  <path fill="#111A5F" class="cls-2" d="M745.27,283.71c-6.89,0-11.76-4.75-11.76-11.63s4.83-11.21,11.63-11.21,11.47,4.58,11.47,11.3c0,.5,0,1.3-.04,1.76h-17.43c.55,3.36,2.94,5.59,6.34,5.59,2.6,0,4.7-1.3,5.75-3.28l4.62,1.43c-1.47,3.78-5.54,6.05-10.58,6.05ZM739.14,270.23h11.89c-.46-2.98-2.81-5.17-6.01-5.17s-5.33,2.06-5.88,5.17Z"></path>
  <path fill="#111A5F" class="cls-2" d="M719.26,283.71c-6.72,0-11.51-4.66-11.51-11.42s4.75-11.42,11.51-11.42c5.63,0,10.08,3.28,10.79,8.19l-5.12.67c-.63-2.56-2.98-4.28-5.63-4.28-3.44,0-6.09,2.81-6.09,6.85s2.6,6.85,6.05,6.85c2.73,0,5.04-1.72,5.71-4.24l5.17.63c-.88,4.91-5.33,8.19-10.88,8.19Z"></path>
  <path fill="#111A5F" class="cls-2" d="M688.75,283h-5.46v-21.42h5.46v2.94h.42c1.55-2.39,3.7-3.61,6.3-3.61,5.04,0,8.36,3.82,8.36,9.03v13.06h-5.46v-12.43c0-2.9-1.68-4.96-4.49-4.96s-5.12,2.23-5.12,5.21v12.18Z"></path>
  <path fill="#111A5F" class="cls-2" d="M667.67,283.71c-6.89,0-11.76-4.75-11.76-11.63s4.83-11.21,11.63-11.21,11.47,4.58,11.47,11.3c0,.5,0,1.3-.04,1.76h-17.43c.55,3.36,2.94,5.59,6.34,5.59,2.6,0,4.7-1.3,5.75-3.28l4.62,1.43c-1.47,3.78-5.54,6.05-10.58,6.05ZM661.54,270.23h11.89c-.46-2.98-2.81-5.17-6.01-5.17s-5.33,2.06-5.88,5.17Z"></path>
  <path fill="#111A5F" class="cls-2" d="M649.2,283.71c-4.12,0-6.72-2.9-6.72-7.22v-10.88h-3.15v-4.03h3.28l1.09-6.85h4.24v6.85h5.04v4.03h-5.04v10.67c0,1.85,1.13,3.11,2.98,3.11.59,0,1.55-.08,2.31-.29l-.04,3.99c-1.13.42-2.81.63-3.99.63Z"></path>
  <path fill="#111A5F" class="cls-2" d="M625.71,283.71c-6.89,0-11.76-4.75-11.76-11.63s4.83-11.21,11.63-11.21,11.47,4.58,11.47,11.3c0,.5,0,1.3-.04,1.76h-17.43c.55,3.36,2.94,5.59,6.34,5.59,2.6,0,4.7-1.3,5.75-3.28l4.62,1.43c-1.47,3.78-5.54,6.05-10.58,6.05ZM619.58,270.23h11.89c-.46-2.98-2.81-5.17-6.01-5.17s-5.33,2.06-5.88,5.17Z"></path>
  <path fill="#111A5F" class="cls-2" d="M600.09,260.87c6.01,0,10.42,4.66,10.42,11.42s-4.41,11.42-10.37,11.42c-3.07,0-5.54-1.22-7.06-3.44h-.42v12.39h-5.46v-31.08h5.46v2.81h.42c1.51-2.27,3.86-3.53,7.01-3.53ZM598.74,265.57c-3.65,0-6.3,2.94-6.3,6.72s2.65,6.72,6.3,6.72,6.3-2.94,6.3-6.72-2.69-6.72-6.3-6.72Z"></path>
  <path fill="#111A5F" class="cls-2" d="M553.56,283h-5.46v-21.42h5.38v3.07h.42c1.22-2.27,3.49-3.78,6.22-3.78s5.46,1.6,6.64,4.03h.42c1.39-2.44,3.78-3.99,6.89-3.99,4.79,0,8.27,3.7,8.27,8.99v13.1h-5.46v-12.39c0-2.86-1.85-5-4.45-5.04-2.69,0-4.58,2.1-4.58,5.04v12.39h-5.46v-12.39c0-3.02-1.72-5.04-4.33-5.04s-4.49,2.02-4.49,5.04v12.39Z"></path>
  <path fill="#111A5F" class="cls-2" d="M532.16,283.71c-7.06,0-11.8-4.58-11.8-11.42s4.75-11.42,11.8-11.42,11.76,4.54,11.76,11.42-4.79,11.42-11.76,11.42ZM532.16,279.01c3.65,0,6.3-2.81,6.3-6.72s-2.65-6.72-6.3-6.72-6.34,2.81-6.34,6.72,2.6,6.72,6.34,6.72Z"></path>
  <path fill="#111A5F" class="cls-2" d="M506.15,283.71c-6.72,0-11.51-4.66-11.51-11.42s4.75-11.42,11.51-11.42c5.63,0,10.08,3.28,10.79,8.19l-5.12.67c-.63-2.56-2.98-4.28-5.63-4.28-3.44,0-6.09,2.81-6.09,6.85s2.6,6.85,6.05,6.85c2.73,0,5.04-1.72,5.71-4.24l5.17.63c-.88,4.91-5.33,8.19-10.88,8.19Z"></path>
  <path fill="#111A5F" class="cls-2" d="M183.18,125.57c0,52.79-33.28,88.64-78.85,88.64-22.82,0-41.08-9.13-52.79-26.06h-3.24v95.85H0V42.15h48.22v21.17h3.24c11.71-16.93,29.04-26.39,52.79-26.39,45.98,0,78.85,35.52,78.85,88.64h.07ZM46.31,125.57c0,26.73,18.59,47.56,44.32,47.56s43.99-20.84,43.99-47.56-18.59-47.23-43.99-47.23-44.32,20.51-44.32,47.23Z"></path>
  <path fill="#111A5F" class="cls-2" d="M205.8,208.85V0h48.22v64.44h3.24c12.7-18.26,28.38-27.72,48.55-27.72,37.84,0,63.24,29.31,63.24,69.13v103h-48.22v-95.85c0-20.51-12.04-34.86-31.62-34.86s-35.19,15.35-35.19,36.85v93.87h-48.22Z"></path>
  <path fill="#111A5F" class="cls-2" d="M400.02,208.85V41.95h48.22v166.9h-48.22Z"></path>
  <path fill="#111A5F" class="cls-2" d="M475,209V0h49v209h-49Z"></path>
  <path fill="#111A5F" class="cls-2" d="M742.47,209.3V42.4h48.22v23.48h3.24c12.37-18.92,28.38-28.38,48.55-28.38,37.84,0,62.91,29.31,62.91,69.39v102.34h-48.22v-95.52c0-20.51-11.71-34.86-31.29-34.86s-35.19,15.35-35.19,36.52v93.87h-48.22v.07Z"></path>
  <path fill="#111A5F" class="cls-2" d="M633.24,40.16c-47.23,0-85.53,38.3-85.53,85.53s38.3,85.54,85.53,85.54,85.53-38.3,85.53-85.54-38.3-85.53-85.53-85.53ZM633.24,168.5c-23.62,0-42.8-19.18-42.8-42.8s19.18-42.8,42.8-42.8,42.8,19.18,42.8,42.8-19.18,42.8-42.8,42.8Z"></path>
</svg>